<svg xmlns="http://www.w3.org/2000/svg" viewBox="0 0 417.61 460.48"><defs><style>.cls-1{isolation:isolate;}.cls-2{fill:#fac59b;}.cls-3{fill:#d7856a;}.cls-4{fill:#f8bc9a;}.cls-5{fill:#293035;}.cls-6{fill:#cc85c2;}.cls-7{fill:#d6a3ce;}.cls-8{fill:#e2bfdc;}.cls-9{opacity:0.35;}.cls-10{fill:#e0ecf3;}.cls-11{opacity:0.09;}.cls-12{fill:none;}.cls-13{fill:#bbede4;}.cls-14{opacity:0.65;}.cls-15{fill:#eff4d6;}.cls-16{fill:#ffee7d;}.cls-17{fill:#a8d742;}.cls-18{fill:#ff7920;}.cls-19{opacity:0.19;}.cls-20{fill:#ffe3da;}.cls-21{fill:#ffc6cb;}.cls-22{fill:#fff9df;}.cls-23{fill:#00aa81;}.cls-24{opacity:0.2;}.cls-25{opacity:0.07;}.cls-26{fill:#ff8344;}.cls-27{fill:#ff1b42;}.cls-28{opacity:0.38;}.cls-29{fill:#ffe3d7;}.cls-30{fill:#ffd4d7;}.cls-31{fill:#fef6db;}.cls-32{fill:#ffefd8;}.cls-33{fill:#ffc44e;}.cls-34{fill:#f5e6f2;}.cls-35{fill:#dff6f3;}.cls-36{fill:#d299c6;}.cls-37{fill:#67b5cd;}.cls-38{opacity:0.3;mix-blend-mode:multiply;}.cls-39{font-size:72px;font-family:MarkerFelt-Thin, MarkerFelt Thin;}</style></defs><title>Varlık 3</title><g class="cls-1"><g id="katman_2" data-name="katman 2"><g id="Layer_1" data-name="Layer 1"><polygon class="cls-2" points="357.74 389.1 338.61 413.58 387.15 451.52 396.62 453.75 396.34 453.63 406.92 440.1 374.42 367.78 398.23 420.75 357.74 389.1"/><polygon class="cls-3" points="357.74 389.1 398.23 420.75 374.42 367.78 358.18 388.55 357.74 389.1"/><polygon class="cls-4" points="387.15 451.52 387.15 451.52 321.07 436.03 387.15 451.52"/><polygon class="cls-4" points="337.88 414.51 321.07 436.03 387.15 451.52 338.61 413.58 337.88 414.51"/><polygon class="cls-5" points="396.82 453.79 396.62 453.75 413.1 460.48 417.61 454.71 406.92 440.1 406.92 440.1 407.14 440.58 396.82 453.79"/><polygon class="cls-5" points="396.62 453.75 396.82 453.79 407.14 440.58 406.92 440.1 396.34 453.63 396.62 453.75"/><rect class="cls-6" x="331.23" y="333.28" width="26.37" height="55.55" transform="translate(-152.16 410.06) rotate(-51.99)"/><polygon class="cls-7" points="294.12 380.3 337.88 414.51 338.61 413.58 357.74 389.1 358.18 388.55 314.41 354.34 294.12 380.3"/><polygon class="cls-8" points="323.96 331.41 324.27 331.52 324.06 331.62 299.96 343.04 266.64 358.83 246.21 368.51 245.99 368.62 226.48 327.44 216.55 319.67 240.89 371.04 240.58 370.93 240.89 371.04 240.68 371.14 239.04 371.91 277.3 401.82 321.07 436.03 337.88 414.51 294.12 380.3 314.41 354.34 330.65 333.56 322.06 326.86 324.27 331.52 323.96 331.41"/><g class="cls-9"><polygon class="cls-10" points="351.32 272.59 406.81 292.4 329.17 329.2 329.47 329.83 407.75 292.73 406.81 292.4 351.32 272.59"/></g><g class="cls-9"><polygon class="cls-10" points="291.43 251.22 292.38 251.56 292.38 251.56 351.32 272.59 291.43 251.22"/></g><g class="cls-11"><line class="cls-12" x1="330.73" y1="130.22" x2="330.09" y2="130.52"/></g><g class="cls-11"><line class="cls-12" x1="289.25" y1="244.96" x2="289.55" y2="245.59"/></g><g class="cls-11"><polygon class="cls-13" points="251.51 166.99 252.45 167.32 252.45 167.32 311.39 188.36 311.39 188.36 329.79 129.89 251.51 166.99"/></g><g class="cls-9"><path class="cls-13" d="M81.51,105.43l40,14.27q-20-7.15-40-14.28"/></g><g class="cls-14"><polygon class="cls-15" points="77.94 104.15 62.46 123.94 81.58 138.89 121.62 119.91 121.82 119.81 121.52 119.7 77.94 104.15"/></g><polygon class="cls-15" points="50.74 138.94 47.9 146.03 43.55 156.91 43.76 156.81 54.93 151.52 81.58 138.89 62.46 123.94 50.74 138.94"/><polygon class="cls-16" points="40.96 151.46 43.55 156.91 47.9 146.03 50.74 138.94 40.96 151.46"/><g class="cls-9"><polygon class="cls-15" points="204.9 80.18 120.28 49.98 120.28 49.98 149.72 60.49 126.93 117.39 127.15 117.29 205 80.39 205.21 80.3 204.9 80.18"/></g><g class="cls-11"><polygon class="cls-17" points="189.6 6.15 172.37 0 173.31 0.34 189.6 6.15"/></g><polygon class="cls-13" points="54.77 193.22 41.48 165.19 41.18 164.55 36.62 179.04 27.87 206.86 22.79 223.03 70.22 239.95 78.28 242.83 54.77 193.22"/><polygon class="cls-18" points="70.22 239.95 70.22 239.96 78.28 242.83 70.22 239.95"/><polygon class="cls-15" points="24.57 172.43 9.12 192.2 27.87 206.86 36.62 179.04 41.18 164.55 26.8 171.37 24.57 172.43"/><g class="cls-19"><polygon class="cls-20" points="70.3 240.02 22.7 223.25 0 279.93 75.55 244.13 70.3 240.02"/></g><polygon class="cls-20" points="75.55 244.13 78.28 242.83 70.22 239.96 22.79 223.03 22.7 223.25 70.3 240.02 75.55 244.13"/><g class="cls-14"><polygon class="cls-21" points="124.35 125.14 112.44 163.01 160.32 201.33 124.35 125.14"/></g><g class="cls-14"><polygon class="cls-22" points="120.06 122.98 83.44 140.34 108.45 159.89 120.06 122.98"/></g><polygon class="cls-22" points="102.12 180.02 108.45 159.89 83.44 140.34 56.78 152.97 41.78 160.08 42.71 160.41 42.71 160.41 102.12 180.02"/><g class="cls-9"><polygon class="cls-23" points="207.73 85.62 189.34 144.09 244.53 163.78 244.83 163.9 207.73 85.62"/></g><g class="cls-9"><polygon class="cls-13" points="207.73 85.62 129.46 122.72 130.39 123.05 130.39 123.05 189.34 144.09 244.53 163.78 189.34 144.09 207.73 85.62"/></g><g class="cls-9"><polygon class="cls-15" points="166.55 201 166.77 200.89 244.62 164 244.83 163.9 244.53 163.78 189.34 144.09 166.55 201"/></g><g class="cls-14"><polygon class="cls-17" points="130.39 123.05 129.45 122.72 166.55 201 189.34 144.09 130.39 123.05"/></g><g class="cls-11"><polygon class="cls-15" points="249.09 161.88 249.73 161.57 327.37 124.78 271.88 104.97 249.09 161.88"/></g><g class="cls-24"><polygon class="cls-17" points="212.94 83.94 211.99 83.6 249.09 161.88 271.88 104.97 212.94 83.94"/></g><polygon class="cls-23" points="80.86 248.27 80.7 247.94 80.65 248.11 80.86 248.27"/><polygon class="cls-13" points="80.65 248.11 80.7 247.94 80.53 248.02 80.65 248.11"/><g class="cls-25"><polygon class="cls-15" points="117.8 326.22 117.8 326.22 62.31 306.41 39.52 363.32 117.8 326.22 117.8 326.22"/></g><polygon class="cls-26" points="146.2 264.69 145.47 267 152.24 269.41 200.66 286.69 200.97 286.8 185.06 253.23 163.87 208.52 156.76 231.11 146.2 264.69"/><polygon class="cls-27" points="152.24 269.41 200.66 286.69 152.24 269.41 145.47 267 146.2 264.69 156.76 231.11 163.87 208.52 141.45 219.15 108.14 234.94 85.59 245.62 86.52 245.96 86.52 245.96 145.47 267 152.24 269.41"/><g class="cls-28"><polygon class="cls-29" points="122.69 323.9 122.91 323.8 156.88 307.69 135.78 291.2 122.69 323.9"/></g><polygon class="cls-29" points="152.24 269.41 145.47 267 135.78 291.2 156.88 307.69 184.48 294.61 200.76 286.9 200.97 286.8 200.66 286.69 152.24 269.41"/><g class="cls-28"><polygon class="cls-30" points="90.37 255.71 122.69 323.9 135.78 291.2 90.37 255.71"/></g><polygon class="cls-30" points="135.78 291.2 145.47 267 86.52 245.96 85.59 245.62 90.37 255.71 135.78 291.2"/><g class="cls-9"><polygon class="cls-31" points="247.25 169 228.86 227.47 284.04 247.17 284.35 247.28 247.25 169"/></g><g class="cls-9"><polygon class="cls-32" points="247.25 169 168.98 206.1 169.91 206.44 169.91 206.44 228.86 227.47 284.04 247.17 228.86 227.47 247.25 169"/></g><g class="cls-14"><polygon class="cls-33" points="220.77 247.68 244.45 266.19 284.14 247.38 284.35 247.28 284.04 247.17 228.86 227.47 220.77 247.68"/></g><polygon class="cls-33" points="210.56 273.17 206.07 284.38 206.29 284.28 217.8 278.82 244.45 266.19 220.77 247.68 210.56 273.17"/><g class="cls-14"><polygon class="cls-16" points="169.91 206.44 168.97 206.1 169.79 207.84 220.77 247.68 228.86 227.47 169.91 206.44"/></g><polygon class="cls-16" points="194.99 261 206.07 284.38 210.56 273.17 220.77 247.68 169.79 207.84 194.99 261"/><g class="cls-11"><polygon class="cls-34" points="311.39 188.36 330.09 130.52 329.79 129.89 311.39 188.36"/></g><g class="cls-9"><polygon class="cls-35" points="289.25 244.96 311.39 188.36 288.61 245.26 289.25 244.96"/></g><g class="cls-9"><polygon class="cls-15" points="251.51 166.99 288.61 245.26 311.39 188.36 252.45 167.32 251.51 166.99"/></g><g class="cls-25"><polygon class="cls-23" points="102.23 390.65 157.72 410.45 157.72 410.45 120.62 332.18 102.23 390.65"/></g><g class="cls-25"><polygon class="cls-13" points="42.34 369.27 43.28 369.61 43.28 369.61 102.23 390.65 120.62 332.18 42.34 369.27"/></g><polygon class="cls-23" points="240.89 371.04 216.55 319.67 203.79 292.76 199.51 306.36 190.76 334.18 185.4 351.23 235.43 369.09 240.58 370.93 240.89 371.04"/><g class="cls-28"><polygon class="cls-13" points="162.69 312.24 125.51 329.86 126.45 330.19 126.45 330.19 185.4 351.23 190.76 334.18 162.69 312.24"/></g><polygon class="cls-13" points="199.51 306.36 203.79 292.76 190.3 299.15 162.69 312.24 190.76 334.18 199.51 306.36"/><polygon class="cls-15" points="240.89 371.04 240.58 370.93 235.43 369.09 239.04 371.91 240.68 371.14 240.89 371.04"/><g class="cls-19"><polygon class="cls-17" points="125.51 329.86 162.61 408.13 185.4 351.23 126.45 330.19 125.51 329.86"/></g><g class="cls-14"><polygon class="cls-34" points="275.47 290.44 322.06 326.86 287.18 253.24 275.47 290.44"/></g><polygon class="cls-34" points="268.78 311.71 323.96 331.41 324.27 331.52 322.06 326.86 275.47 290.44 268.78 311.71"/><g class="cls-14"><polygon class="cls-10" points="287.18 253.24 250.26 270.74 275.47 290.44 287.18 253.24"/></g><polygon class="cls-10" points="268.78 311.71 323.96 331.41 268.78 311.71 275.47 290.44 250.26 270.74 223.61 283.37 208.9 290.34 209.83 290.67 209.83 290.67 252.39 305.86 268.78 311.71"/><polygon class="cls-36" points="266.66 317.01 253.9 348.87 245.99 368.62 246.21 368.51 266.64 358.83 299.96 343.04 324.06 331.62 324.27 331.52 323.96 331.41 268.78 311.71 266.66 317.01"/><polygon class="cls-37" points="253.9 348.87 266.66 317.01 268.78 311.71 252.39 305.86 209.83 290.67 208.9 290.34 226.48 327.44 245.99 368.62 253.9 348.87"/><g class="cls-9"><line class="cls-12" x1="351.32" y1="272.59" x2="406.81" y2="292.4"/></g><g class="cls-9"><line class="cls-12" x1="351.32" y1="272.59" x2="406.81" y2="292.4"/></g><g class="cls-9"><polygon class="cls-36" points="351.32 272.59 328.53 329.5 329.17 329.2 406.81 292.4 351.32 272.59"/></g><g class="cls-14"><polygon class="cls-37" points="292.38 251.56 291.43 251.22 328.53 329.5 351.32 272.59 292.38 251.56"/></g><g class="cls-14"><polygon class="cls-21" points="106.42 181.61 112.54 163.09 160.51 201.48 106.42 181.61"/></g><polygon class="cls-22" points="81.94 240.46 160.51 201.48 106.57 181.43 81.94 240.46"/><polygon class="cls-16" points="42.71 160.41 79.35 235.74 102.12 180.02 42.71 160.41"/><g class="cls-38"><rect class="cls-8" x="126.89" y="92.11" width="86.67" height="341.33" transform="translate(-141.64 235.07) rotate(-51.99)"/></g><text class="cls-39" transform="translate(103.27 210.68) rotate(-51.99)">A</text><text class="cls-39" transform="translate(152.24 296.83) rotate(-51.99)">B</text><text class="cls-39" transform="translate(193.38 171.13) rotate(-51.99)">C</text><text class="cls-39" transform="translate(232.6 254.82) rotate(-51.99)">D</text><text class="cls-39" transform="translate(274.34 335.28) rotate(-51.99)">E</text></g></g></g></svg>